<svg xmlns="http://www.w3.org/2000/svg" viewBox="0 0 1000 1250" width="1000" height="1250" role="img" aria-label="Bonner Hofgarten bei Nacht als Startpunkt einer Tour" preserveAspectRatio="xMidYMid slice"><defs>
  <linearGradient id="pc_sky" x1="0" y1="0" x2="0" y2="1">
    <stop offset="0%" stop-color="#070d15"/>
    <stop offset="55%" stop-color="#0b1522"/>
    <stop offset="100%" stop-color="#101e2e"/>
  </linearGradient>
  <radialGradient id="pc_glow" cx="50%" cy="50%" r="50%">
    <stop offset="0%" stop-color="#dbff3e" stop-opacity="0.45"/>
    <stop offset="60%" stop-color="#dbff3e" stop-opacity="0.10"/>
    <stop offset="100%" stop-color="#dbff3e" stop-opacity="0"/>
  </radialGradient>
  <radialGradient id="pc_glowT" cx="50%" cy="50%" r="50%">
    <stop offset="0%" stop-color="#3ef0cf" stop-opacity="0.35"/>
    <stop offset="100%" stop-color="#3ef0cf" stop-opacity="0"/>
  </radialGradient>
  <filter id="pc_soft" x="-30%" y="-30%" width="160%" height="160%">
    <feGaussianBlur stdDeviation="6"/>
  </filter>
  <filter id="pc_soft2" x="-30%" y="-30%" width="160%" height="160%">
    <feGaussianBlur stdDeviation="2"/>
  </filter>
  
</defs><rect width="1000" height="1250" fill="url(#pc_sky)"/><circle cx="570.3" cy="395.1" r="1.58" fill="#eaf3ff" opacity="0.32"/><circle cx="651.9" cy="556.8" r="1.69" fill="#eaf3ff" opacity="0.26"/><circle cx="651.7" cy="385.7" r="1.20" fill="#eaf3ff" opacity="0.73"/><circle cx="528.3" cy="278.3" r="1.73" fill="#eaf3ff" opacity="0.53"/><circle cx="301.3" cy="193.3" r="1.20" fill="#eaf3ff" opacity="0.18"/><circle cx="607.6" cy="459.9" r="1.11" fill="#eaf3ff" opacity="0.66"/><circle cx="928.0" cy="347.3" r="1.42" fill="#eaf3ff" opacity="0.22"/><circle cx="56.0" cy="612.5" r="0.94" fill="#eaf3ff" opacity="0.28"/><circle cx="896.7" cy="468.6" r="0.75" fill="#eaf3ff" opacity="0.34"/><circle cx="242.7" cy="170.4" r="0.61" fill="#eaf3ff" opacity="0.46"/><circle cx="304.3" cy="246.4" r="0.82" fill="#eaf3ff" opacity="0.22"/><circle cx="32.9" cy="545.5" r="1.50" fill="#eaf3ff" opacity="0.49"/><circle cx="123.8" cy="93.1" r="0.74" fill="#eaf3ff" opacity="0.34"/><circle cx="57.6" cy="172.1" r="0.84" fill="#eaf3ff" opacity="0.27"/><circle cx="653.7" cy="286.1" r="1.17" fill="#eaf3ff" opacity="0.36"/><circle cx="539.0" cy="490.7" r="0.97" fill="#eaf3ff" opacity="0.19"/><circle cx="481.2" cy="237.0" r="1.54" fill="#eaf3ff" opacity="0.22"/><circle cx="872.7" cy="9.3" r="1.25" fill="#eaf3ff" opacity="0.42"/><circle cx="315.3" cy="555.6" r="1.44" fill="#eaf3ff" opacity="0.25"/><circle cx="494.9" cy="382.7" r="0.64" fill="#eaf3ff" opacity="0.20"/><circle cx="601.7" cy="455.9" r="1.16" fill="#eaf3ff" opacity="0.40"/><circle cx="506.9" cy="162.9" r="1.65" fill="#eaf3ff" opacity="0.73"/><circle cx="481.9" cy="12.8" r="1.08" fill="#eaf3ff" opacity="0.63"/><circle cx="325.0" cy="66.0" r="0.82" fill="#eaf3ff" opacity="0.58"/><circle cx="622.0" cy="178.9" r="1.35" fill="#eaf3ff" opacity="0.61"/><circle cx="966.1" cy="519.6" r="1.12" fill="#eaf3ff" opacity="0.64"/><circle cx="925.4" cy="543.1" r="1.50" fill="#eaf3ff" opacity="0.50"/><circle cx="511.4" cy="531.4" r="1.35" fill="#eaf3ff" opacity="0.58"/><circle cx="227.9" cy="57.6" r="0.92" fill="#eaf3ff" opacity="0.50"/><circle cx="573.0" cy="124.1" r="0.83" fill="#eaf3ff" opacity="0.72"/><circle cx="71.5" cy="579.0" r="1.53" fill="#eaf3ff" opacity="0.49"/><circle cx="995.6" cy="424.9" r="0.61" fill="#eaf3ff" opacity="0.71"/><circle cx="413.4" cy="572.9" r="1.58" fill="#eaf3ff" opacity="0.23"/><circle cx="39.7" cy="13.0" r="1.54" fill="#eaf3ff" opacity="0.62"/><circle cx="228.0" cy="70.5" r="1.04" fill="#eaf3ff" opacity="0.63"/><circle cx="740.8" cy="541.9" r="1.76" fill="#eaf3ff" opacity="0.60"/><circle cx="835.6" cy="10.2" r="0.61" fill="#eaf3ff" opacity="0.67"/><circle cx="618.7" cy="204.3" r="0.75" fill="#eaf3ff" opacity="0.35"/><circle cx="339.1" cy="309.8" r="1.14" fill="#eaf3ff" opacity="0.27"/><circle cx="82.1" cy="126.9" r="0.75" fill="#eaf3ff" opacity="0.21"/><circle cx="414.5" cy="81.3" r="1.56" fill="#eaf3ff" opacity="0.48"/><circle cx="460.1" cy="399.5" r="0.88" fill="#eaf3ff" opacity="0.16"/><circle cx="78.6" cy="210.7" r="1.03" fill="#eaf3ff" opacity="0.30"/><circle cx="306.4" cy="521.1" r="0.61" fill="#eaf3ff" opacity="0.42"/><circle cx="383.0" cy="176.3" r="1.47" fill="#eaf3ff" opacity="0.28"/><circle cx="42.3" cy="99.7" r="1.77" fill="#eaf3ff" opacity="0.36"/><circle cx="117.1" cy="606.8" r="1.37" fill="#eaf3ff" opacity="0.72"/><circle cx="331.4" cy="506.2" r="0.65" fill="#eaf3ff" opacity="0.29"/><circle cx="794.7" cy="322.5" r="1.55" fill="#eaf3ff" opacity="0.38"/><circle cx="876.4" cy="48.5" r="1.35" fill="#eaf3ff" opacity="0.26"/><circle cx="199.4" cy="552.0" r="1.12" fill="#eaf3ff" opacity="0.64"/><circle cx="284.0" cy="456.4" r="1.69" fill="#eaf3ff" opacity="0.53"/><circle cx="234.6" cy="417.7" r="1.74" fill="#eaf3ff" opacity="0.63"/><circle cx="444.0" cy="249.6" r="0.72" fill="#eaf3ff" opacity="0.61"/><circle cx="158.3" cy="136.5" r="0.64" fill="#eaf3ff" opacity="0.25"/><circle cx="383.7" cy="297.9" r="0.81" fill="#eaf3ff" opacity="0.40"/><circle cx="758.1" cy="60.6" r="0.76" fill="#eaf3ff" opacity="0.46"/><circle cx="903.9" cy="573.6" r="1.28" fill="#eaf3ff" opacity="0.20"/><circle cx="873.7" cy="620.4" r="1.68" fill="#eaf3ff" opacity="0.47"/><circle cx="382.6" cy="366.8" r="1.55" fill="#eaf3ff" opacity="0.75"/><circle cx="493.6" cy="316.7" r="0.97" fill="#eaf3ff" opacity="0.47"/><circle cx="543.7" cy="176.9" r="1.15" fill="#eaf3ff" opacity="0.70"/><circle cx="236.0" cy="158.6" r="0.97" fill="#eaf3ff" opacity="0.67"/><circle cx="303.3" cy="516.9" r="1.71" fill="#eaf3ff" opacity="0.68"/><circle cx="804.4" cy="121.7" r="1.14" fill="#eaf3ff" opacity="0.64"/><circle cx="245.8" cy="376.1" r="1.65" fill="#eaf3ff" opacity="0.71"/><circle cx="350.6" cy="74.5" r="0.64" fill="#eaf3ff" opacity="0.34"/><circle cx="547.1" cy="175.3" r="1.59" fill="#eaf3ff" opacity="0.54"/><circle cx="621.2" cy="516.8" r="0.99" fill="#eaf3ff" opacity="0.54"/><circle cx="350.8" cy="180.8" r="0.74" fill="#eaf3ff" opacity="0.62"/><circle cx="900.4" cy="19.5" r="1.46" fill="#eaf3ff" opacity="0.19"/><circle cx="417.6" cy="197.9" r="1.68" fill="#eaf3ff" opacity="0.41"/><circle cx="510.7" cy="222.5" r="0.91" fill="#eaf3ff" opacity="0.30"/><circle cx="62.3" cy="9.0" r="1.26" fill="#eaf3ff" opacity="0.59"/><circle cx="670.5" cy="162.0" r="1.79" fill="#eaf3ff" opacity="0.20"/><circle cx="431.7" cy="208.6" r="0.82" fill="#eaf3ff" opacity="0.73"/><circle cx="715.2" cy="82.1" r="0.81" fill="#eaf3ff" opacity="0.64"/><circle cx="372.5" cy="188.4" r="0.96" fill="#eaf3ff" opacity="0.35"/><circle cx="588.8" cy="194.8" r="1.31" fill="#eaf3ff" opacity="0.19"/><circle cx="535.2" cy="364.8" r="0.98" fill="#eaf3ff" opacity="0.67"/><circle cx="928.2" cy="410.7" r="1.09" fill="#eaf3ff" opacity="0.25"/><circle cx="625.6" cy="180.6" r="0.80" fill="#eaf3ff" opacity="0.47"/><circle cx="200.2" cy="399.5" r="1.51" fill="#eaf3ff" opacity="0.16"/><circle cx="632.6" cy="119.7" r="1.00" fill="#eaf3ff" opacity="0.58"/><circle cx="965.3" cy="196.2" r="1.51" fill="#eaf3ff" opacity="0.36"/><circle cx="940.6" cy="108.6" r="1.40" fill="#eaf3ff" opacity="0.20"/><circle cx="559.9" cy="464.4" r="1.70" fill="#eaf3ff" opacity="0.61"/><circle cx="549.6" cy="250.0" r="1.36" fill="#eaf3ff" opacity="0.54"/><circle cx="611.2" cy="446.3" r="1.49" fill="#eaf3ff" opacity="0.71"/><circle cx="620.6" cy="547.6" r="1.49" fill="#eaf3ff" opacity="0.38"/><circle cx="680" cy="250" r="620" fill="url(#pc_glow)" opacity="0.4"/><g fill="#0a1420" stroke="#dbff3e" stroke-opacity="0.45" stroke-width="2"><path d="M60 825.0 L60 700 L150 700 L150 825.0 Z"/><path d="M180 825.0 L180 640 L188 600 L196 640 L196 825.0 Z"/><path d="M210 825.0 L210 560 L226 500 L236 452 L246 500 L262 560 L262 825.0 Z"/><path d="M300 825.0 L300 660 L300 660 L390 660 L390 825.0 Z"/><path d="M420 825.0 L420 520 q30 -20 60 0 L480 825.0 Z"/><path d="M520 825.0 L520 690 L610 690 L610 660 L660 660 L660 825.0 Z"/><path d="M700 825.0 L700 620 L790 620 L790 825.0 Z"/><path d="M820 825.0 L820 676 L940 676 L940 825.0 Z"/></g><rect x="762" y="582" width="4" height="6" fill="#dbff3e" opacity="0.34"/><rect x="783" y="510" width="4" height="6" fill="#dbff3e" opacity="0.49"/><rect x="551" y="681" width="4" height="6" fill="#dbff3e" opacity="0.29"/><rect x="614" y="643" width="4" height="6" fill="#dbff3e" opacity="0.71"/><rect x="87" y="800" width="4" height="6" fill="#dbff3e" opacity="0.30"/><rect x="774" y="645" width="4" height="6" fill="#dbff3e" opacity="0.70"/><rect x="222" y="581" width="4" height="6" fill="#dbff3e" opacity="0.25"/><rect x="744" y="654" width="4" height="6" fill="#dbff3e" opacity="0.32"/><rect x="230" y="498" width="4" height="6" fill="#dbff3e" opacity="0.32"/><rect x="553" y="621" width="4" height="6" fill="#dbff3e" opacity="0.62"/><rect x="129" y="760" width="4" height="6" fill="#dbff3e" opacity="0.79"/><rect x="710" y="726" width="4" height="6" fill="#dbff3e" opacity="0.71"/><rect x="145" y="629" width="4" height="6" fill="#dbff3e" opacity="0.25"/><rect x="747" y="656" width="4" height="6" fill="#dbff3e" opacity="0.26"/><rect x="452" y="738" width="4" height="6" fill="#dbff3e" opacity="0.53"/><rect x="168" y="793" width="4" height="6" fill="#dbff3e" opacity="0.23"/><rect x="801" y="806" width="4" height="6" fill="#dbff3e" opacity="0.65"/><rect x="891" y="653" width="4" height="6" fill="#dbff3e" opacity="0.33"/><rect x="476" y="725" width="4" height="6" fill="#dbff3e" opacity="0.66"/><rect x="399" y="797" width="4" height="6" fill="#dbff3e" opacity="0.22"/><rect x="496" y="484" width="4" height="6" fill="#dbff3e" opacity="0.41"/><rect x="929" y="511" width="4" height="6" fill="#dbff3e" opacity="0.79"/><rect x="855" y="707" width="4" height="6" fill="#dbff3e" opacity="0.23"/><rect x="475" y="709" width="4" height="6" fill="#dbff3e" opacity="0.26"/><rect x="323" y="502" width="4" height="6" fill="#dbff3e" opacity="0.71"/><rect x="864" y="789" width="4" height="6" fill="#dbff3e" opacity="0.65"/><rect x="566" y="491" width="4" height="6" fill="#dbff3e" opacity="0.49"/><rect x="728" y="731" width="4" height="6" fill="#dbff3e" opacity="0.22"/><rect x="69" y="500" width="4" height="6" fill="#dbff3e" opacity="0.75"/><rect x="161" y="605" width="4" height="6" fill="#dbff3e" opacity="0.49"/><rect x="836" y="517" width="4" height="6" fill="#dbff3e" opacity="0.36"/><rect x="738" y="500" width="4" height="6" fill="#dbff3e" opacity="0.30"/><rect x="84" y="801" width="4" height="6" fill="#dbff3e" opacity="0.34"/><rect x="501" y="601" width="4" height="6" fill="#dbff3e" opacity="0.79"/><rect x="686" y="677" width="4" height="6" fill="#dbff3e" opacity="0.49"/><rect x="297" y="760" width="4" height="6" fill="#dbff3e" opacity="0.26"/><rect x="607" y="572" width="4" height="6" fill="#dbff3e" opacity="0.37"/><rect x="459" y="535" width="4" height="6" fill="#dbff3e" opacity="0.56"/><rect x="124" y="476" width="4" height="6" fill="#dbff3e" opacity="0.28"/><rect x="141" y="773" width="4" height="6" fill="#dbff3e" opacity="0.51"/><rect x="657" y="739" width="4" height="6" fill="#dbff3e" opacity="0.30"/><rect x="895" y="603" width="4" height="6" fill="#dbff3e" opacity="0.48"/><rect x="490" y="710" width="4" height="6" fill="#dbff3e" opacity="0.66"/><rect x="232" y="756" width="4" height="6" fill="#dbff3e" opacity="0.46"/><rect x="282" y="768" width="4" height="6" fill="#dbff3e" opacity="0.72"/><rect x="814" y="582" width="4" height="6" fill="#dbff3e" opacity="0.75"/><rect x="742" y="805" width="4" height="6" fill="#dbff3e" opacity="0.65"/><rect x="938" y="635" width="4" height="6" fill="#dbff3e" opacity="0.65"/><rect x="746" y="651" width="4" height="6" fill="#dbff3e" opacity="0.50"/><rect x="413" y="770" width="4" height="6" fill="#dbff3e" opacity="0.43"/><rect x="716" y="664" width="4" height="6" fill="#dbff3e" opacity="0.62"/><rect x="333" y="497" width="4" height="6" fill="#dbff3e" opacity="0.61"/><rect x="189" y="594" width="4" height="6" fill="#dbff3e" opacity="0.67"/><rect x="105" y="784" width="4" height="6" fill="#dbff3e" opacity="0.55"/><rect x="553" y="704" width="4" height="6" fill="#dbff3e" opacity="0.23"/><rect x="81" y="719" width="4" height="6" fill="#dbff3e" opacity="0.55"/><rect x="622" y="754" width="4" height="6" fill="#dbff3e" opacity="0.36"/><rect x="203" y="804" width="4" height="6" fill="#dbff3e" opacity="0.24"/><rect x="514" y="685" width="4" height="6" fill="#dbff3e" opacity="0.77"/><rect x="138" y="712" width="4" height="6" fill="#dbff3e" opacity="0.25"/><path d="M0 825.0 L1000 809.0 L1000 1250 L0 1250 Z" fill="#070f18"/><path d="M0 825.0 L1000 809.0" stroke="#dbff3e" stroke-width="2" opacity="0.35"/><rect x="-48.4" y="671.2" width="16.9" height="273.8" fill="#04090f" opacity="1"/><g fill="#04090f" opacity="1"><circle cx="-37.5" cy="694.8" r="61.9"/><circle cx="-70.8" cy="654.8" r="52.6"/><circle cx="11.6" cy="674.2" r="58.5"/><circle cx="-33.9" cy="714.2" r="64.9"/><circle cx="-24.8" cy="653.6" r="70.0"/><circle cx="-17.0" cy="693.6" r="77.0"/><circle cx="-85.4" cy="666.6" r="71.0"/></g><circle cx="-40.0" cy="671.2" r="106.9" fill="none" stroke="#3ef0cf" stroke-width="1.4" opacity="0.28"/><rect x="88.2" y="666.0" width="13.5" height="219.0" fill="#04090f" opacity="1"/><g fill="#04090f" opacity="1"><circle cx="95.4" cy="669.6" r="50.1"/><circle cx="96.9" cy="667.9" r="50.3"/><circle cx="129.5" cy="652.3" r="59.1"/><circle cx="99.7" cy="684.3" r="47.2"/><circle cx="97.5" cy="669.3" r="45.7"/><circle cx="131.8" cy="653.4" r="60.1"/><circle cx="98.0" cy="659.6" r="48.0"/></g><circle cx="95.0" cy="666.0" r="85.5" fill="none" stroke="#3ef0cf" stroke-width="1.4" opacity="0.28"/><rect x="898.2" y="666.0" width="13.5" height="219.0" fill="#04090f" opacity="1"/><g fill="#04090f" opacity="1"><circle cx="878.7" cy="648.1" r="59.8"/><circle cx="939.3" cy="656.9" r="62.9"/><circle cx="927.7" cy="668.9" r="63.4"/><circle cx="878.6" cy="640.9" r="43.3"/><circle cx="893.0" cy="667.7" r="53.7"/><circle cx="904.4" cy="665.8" r="45.8"/><circle cx="896.6" cy="697.2" r="59.1"/></g><circle cx="905.0" cy="666.0" r="85.5" fill="none" stroke="#3ef0cf" stroke-width="1.4" opacity="0.28"/><rect x="1036.6" y="671.2" width="16.9" height="273.8" fill="#04090f" opacity="1"/><g fill="#04090f" opacity="1"><circle cx="1058.7" cy="637.0" r="65.4"/><circle cx="1045.0" cy="671.3" r="70.8"/><circle cx="998.8" cy="677.4" r="62.0"/><circle cx="1047.1" cy="659.5" r="75.0"/><circle cx="1041.8" cy="653.5" r="67.0"/><circle cx="1040.1" cy="663.6" r="67.4"/><circle cx="1050.6" cy="660.4" r="75.0"/></g><circle cx="1045.0" cy="671.2" r="106.9" fill="none" stroke="#3ef0cf" stroke-width="1.4" opacity="0.28"/><path d="M 420 1250 C 460 1025 600 1000 560 850 C 520 712 440 725 480 625" fill="none" stroke="#dbff3e" stroke-width="10" opacity="0.20" filter="url(#pc_soft)"/><path d="M 420 1250 C 460 1025 600 1000 560 850 C 520 712 440 725 480 625" fill="none" stroke="#dbff3e" stroke-width="2.4" opacity="0.75" stroke-dasharray="14 12" stroke-linecap="round"/><g fill="#04080e"><circle cx="430.0" cy="992.0" r="20.8"/><path d="M 430.0 1008.7 L 430.0 1059.2" stroke-width="17.6" stroke-linecap="round" fill="none" stroke="#04080e"/><path d="M 430.0 1057.7 L 409.2 1131.2" stroke-width="12.0" stroke-linecap="round" fill="none" stroke="#04080e"/><path d="M 430.0 1057.7 L 445.6 1131.2" stroke-width="12.0" stroke-linecap="round" fill="none" stroke="#04080e"/><path d="M 430.0 1022.5 L 457.2 1051.2" stroke-width="9.6" stroke-linecap="round" fill="none" stroke="#04080e"/><rect x="404.4" y="1003.2" width="20.8" height="38.4" rx="8.0" fill="#04080e"/></g><g fill="#04080e"><circle cx="520.0" cy="1025.8" r="19.5"/><path d="M 520.0 1041.3 L 520.0 1088.8" stroke-width="16.5" stroke-linecap="round" fill="none" stroke="#04080e"/><path d="M 520.0 1087.2 L 491.5 1156.2" stroke-width="11.2" stroke-linecap="round" fill="none" stroke="#04080e"/><path d="M 520.0 1087.2 L 541.4 1156.2" stroke-width="11.2" stroke-linecap="round" fill="none" stroke="#04080e"/><path d="M 520.0 1054.2 L 545.5 1081.2" stroke-width="9.0" stroke-linecap="round" fill="none" stroke="#04080e"/><rect x="496.0" y="1036.2" width="19.5" height="36.0" rx="7.5" fill="#04080e"/></g><g fill="#04080e"><circle cx="605.0" cy="1018.5" r="18.7"/><path d="M 605.0 1033.4 L 605.0 1079.0" stroke-width="15.8" stroke-linecap="round" fill="none" stroke="#04080e"/><path d="M 605.0 1077.5 L 586.3 1143.8" stroke-width="10.8" stroke-linecap="round" fill="none" stroke="#04080e"/><path d="M 605.0 1077.5 L 619.0 1143.8" stroke-width="10.8" stroke-linecap="round" fill="none" stroke="#04080e"/><path d="M 605.0 1045.8 L 629.5 1071.8" stroke-width="8.6" stroke-linecap="round" fill="none" stroke="#04080e"/><rect x="582.0" y="1028.5" width="18.7" height="34.6" rx="7.2" fill="#04080e"/></g><g fill="#04080e"><rect x="649.2" y="1119.7" width="58.8" height="23.5" rx="11.2"/><circle cx="714.7" cy="1116.3" r="14.6"/><path d="M 724.8 1115.2 l 16.8 2.8 l -2.8 7.8 z"/><path d="M 709.1 1104.6 l 9.0 -1.1 l -2.2 11.2 z"/><path d="M 649.2 1123.0 q -16.8 -16.8 -5.6 -26.9 l 7.3 3.4 q -4.5 13.4 5.6 20.2 z"/><rect x="656.5" y="1141.0" width="8.4" height="19.0" rx="3.9"/><rect x="693.4" y="1141.0" width="8.4" height="19.0" rx="3.9"/></g><ellipse cx="620" cy="1162" rx="300" ry="110" fill="url(#pc_glow)" opacity="0.3"/></svg>