<svg xmlns="http://www.w3.org/2000/svg" viewBox="0 0 1400 900" width="1400" height="900" role="img" aria-label="Drachenfels mit Burgruine ueber dem Rhein" preserveAspectRatio="xMidYMid slice"><defs>
  <linearGradient id="rd_sky" x1="0" y1="0" x2="0" y2="1">
    <stop offset="0%" stop-color="#070d15"/>
    <stop offset="55%" stop-color="#0b1522"/>
    <stop offset="100%" stop-color="#101e2e"/>
  </linearGradient>
  <radialGradient id="rd_glow" cx="50%" cy="50%" r="50%">
    <stop offset="0%" stop-color="#dbff3e" stop-opacity="0.45"/>
    <stop offset="60%" stop-color="#dbff3e" stop-opacity="0.10"/>
    <stop offset="100%" stop-color="#dbff3e" stop-opacity="0"/>
  </radialGradient>
  <radialGradient id="rd_glowT" cx="50%" cy="50%" r="50%">
    <stop offset="0%" stop-color="#3ef0cf" stop-opacity="0.35"/>
    <stop offset="100%" stop-color="#3ef0cf" stop-opacity="0"/>
  </radialGradient>
  <filter id="rd_soft" x="-30%" y="-30%" width="160%" height="160%">
    <feGaussianBlur stdDeviation="6"/>
  </filter>
  <filter id="rd_soft2" x="-30%" y="-30%" width="160%" height="160%">
    <feGaussianBlur stdDeviation="2"/>
  </filter>
  
</defs><rect width="1400" height="900" fill="url(#rd_sky)"/><circle cx="362.6" cy="308.4" r="1.42" fill="#eaf3ff" opacity="0.66"/><circle cx="260.0" cy="103.8" r="0.78" fill="#eaf3ff" opacity="0.29"/><circle cx="1027.6" cy="58.6" r="1.24" fill="#eaf3ff" opacity="0.28"/><circle cx="412.5" cy="194.2" r="1.61" fill="#eaf3ff" opacity="0.52"/><circle cx="20.2" cy="124.1" r="0.78" fill="#eaf3ff" opacity="0.67"/><circle cx="1133.6" cy="362.7" r="1.59" fill="#eaf3ff" opacity="0.60"/><circle cx="1329.1" cy="357.2" r="0.91" fill="#eaf3ff" opacity="0.66"/><circle cx="681.5" cy="339.8" r="1.28" fill="#eaf3ff" opacity="0.41"/><circle cx="509.9" cy="193.4" r="0.98" fill="#eaf3ff" opacity="0.22"/><circle cx="1147.5" cy="359.2" r="1.78" fill="#eaf3ff" opacity="0.56"/><circle cx="775.9" cy="336.8" r="0.76" fill="#eaf3ff" opacity="0.56"/><circle cx="620.8" cy="79.5" r="0.84" fill="#eaf3ff" opacity="0.46"/><circle cx="354.6" cy="206.8" r="1.33" fill="#eaf3ff" opacity="0.39"/><circle cx="183.1" cy="220.9" r="0.88" fill="#eaf3ff" opacity="0.29"/><circle cx="272.3" cy="164.9" r="0.69" fill="#eaf3ff" opacity="0.54"/><circle cx="1335.1" cy="175.4" r="1.46" fill="#eaf3ff" opacity="0.71"/><circle cx="60.5" cy="63.8" r="1.57" fill="#eaf3ff" opacity="0.65"/><circle cx="894.7" cy="71.9" r="1.10" fill="#eaf3ff" opacity="0.67"/><circle cx="1240.7" cy="361.4" r="0.84" fill="#eaf3ff" opacity="0.66"/><circle cx="524.7" cy="322.4" r="0.76" fill="#eaf3ff" opacity="0.73"/><circle cx="844.9" cy="325.2" r="0.85" fill="#eaf3ff" opacity="0.52"/><circle cx="813.2" cy="266.1" r="1.03" fill="#eaf3ff" opacity="0.59"/><circle cx="477.9" cy="132.9" r="0.80" fill="#eaf3ff" opacity="0.56"/><circle cx="157.2" cy="101.5" r="0.68" fill="#eaf3ff" opacity="0.54"/><circle cx="778.6" cy="244.5" r="0.65" fill="#eaf3ff" opacity="0.41"/><circle cx="480.3" cy="41.7" r="0.60" fill="#eaf3ff" opacity="0.75"/><circle cx="170.1" cy="135.7" r="0.92" fill="#eaf3ff" opacity="0.51"/><circle cx="108.4" cy="211.5" r="1.04" fill="#eaf3ff" opacity="0.65"/><circle cx="8.0" cy="150.6" r="1.20" fill="#eaf3ff" opacity="0.73"/><circle cx="723.4" cy="213.4" r="1.40" fill="#eaf3ff" opacity="0.33"/><circle cx="44.4" cy="225.6" r="1.69" fill="#eaf3ff" opacity="0.59"/><circle cx="361.6" cy="307.8" r="1.62" fill="#eaf3ff" opacity="0.31"/><circle cx="823.2" cy="160.0" r="0.89" fill="#eaf3ff" opacity="0.32"/><circle cx="285.4" cy="157.9" r="0.65" fill="#eaf3ff" opacity="0.39"/><circle cx="121.5" cy="341.2" r="1.32" fill="#eaf3ff" opacity="0.15"/><circle cx="1083.4" cy="85.7" r="1.18" fill="#eaf3ff" opacity="0.48"/><circle cx="466.0" cy="130.2" r="1.12" fill="#eaf3ff" opacity="0.23"/><circle cx="1209.0" cy="50.4" r="1.59" fill="#eaf3ff" opacity="0.28"/><circle cx="424.7" cy="174.8" r="0.64" fill="#eaf3ff" opacity="0.23"/><circle cx="505.4" cy="198.8" r="1.65" fill="#eaf3ff" opacity="0.74"/><circle cx="61.0" cy="240.8" r="0.76" fill="#eaf3ff" opacity="0.63"/><circle cx="451.8" cy="401.8" r="1.25" fill="#eaf3ff" opacity="0.23"/><circle cx="6.9" cy="111.7" r="1.64" fill="#eaf3ff" opacity="0.24"/><circle cx="670.5" cy="167.2" r="1.01" fill="#eaf3ff" opacity="0.63"/><circle cx="299.3" cy="323.3" r="1.40" fill="#eaf3ff" opacity="0.71"/><circle cx="727.9" cy="414.2" r="1.13" fill="#eaf3ff" opacity="0.49"/><circle cx="868.8" cy="377.8" r="1.68" fill="#eaf3ff" opacity="0.22"/><circle cx="192.0" cy="240.2" r="1.57" fill="#eaf3ff" opacity="0.47"/><circle cx="419.3" cy="432.8" r="0.96" fill="#eaf3ff" opacity="0.20"/><circle cx="72.9" cy="13.7" r="1.47" fill="#eaf3ff" opacity="0.21"/><circle cx="1002.6" cy="389.9" r="1.80" fill="#eaf3ff" opacity="0.64"/><circle cx="594.1" cy="280.0" r="1.60" fill="#eaf3ff" opacity="0.58"/><circle cx="406.6" cy="342.9" r="0.73" fill="#eaf3ff" opacity="0.34"/><circle cx="1394.6" cy="212.1" r="0.92" fill="#eaf3ff" opacity="0.62"/><circle cx="630.3" cy="1.7" r="0.64" fill="#eaf3ff" opacity="0.31"/><circle cx="464.7" cy="421.8" r="0.90" fill="#eaf3ff" opacity="0.66"/><circle cx="1194.9" cy="187.3" r="1.79" fill="#eaf3ff" opacity="0.61"/><circle cx="677.7" cy="117.7" r="1.15" fill="#eaf3ff" opacity="0.69"/><circle cx="751.4" cy="87.3" r="1.05" fill="#eaf3ff" opacity="0.44"/><circle cx="267.0" cy="257.8" r="0.64" fill="#eaf3ff" opacity="0.64"/><circle cx="250.2" cy="46.3" r="1.31" fill="#eaf3ff" opacity="0.33"/><circle cx="1239.2" cy="223.6" r="1.23" fill="#eaf3ff" opacity="0.65"/><circle cx="300.0" cy="335.4" r="1.38" fill="#eaf3ff" opacity="0.41"/><circle cx="1343.1" cy="9.9" r="1.63" fill="#eaf3ff" opacity="0.24"/><circle cx="1175.6" cy="69.2" r="0.66" fill="#eaf3ff" opacity="0.45"/><circle cx="1296.2" cy="115.8" r="1.18" fill="#eaf3ff" opacity="0.51"/><circle cx="341.1" cy="238.7" r="0.61" fill="#eaf3ff" opacity="0.42"/><circle cx="1063.7" cy="153.0" r="0.86" fill="#eaf3ff" opacity="0.18"/><circle cx="980.8" cy="192.2" r="1.70" fill="#eaf3ff" opacity="0.59"/><circle cx="140.5" cy="411.4" r="1.72" fill="#eaf3ff" opacity="0.64"/><circle cx="1163.8" cy="306.6" r="1.47" fill="#eaf3ff" opacity="0.55"/><circle cx="827.0" cy="115.7" r="0.76" fill="#eaf3ff" opacity="0.59"/><circle cx="835.1" cy="25.4" r="1.37" fill="#eaf3ff" opacity="0.52"/><circle cx="716.2" cy="348.8" r="1.65" fill="#eaf3ff" opacity="0.38"/><circle cx="1140.6" cy="224.7" r="1.29" fill="#eaf3ff" opacity="0.40"/><circle cx="1306.2" cy="200.0" r="1.74" fill="#eaf3ff" opacity="0.35"/><circle cx="941.2" cy="410.7" r="1.42" fill="#eaf3ff" opacity="0.38"/><circle cx="108.8" cy="215.3" r="1.10" fill="#eaf3ff" opacity="0.64"/><circle cx="1098.1" cy="443.8" r="1.14" fill="#eaf3ff" opacity="0.40"/><circle cx="789.9" cy="337.4" r="0.70" fill="#eaf3ff" opacity="0.28"/><circle cx="204.1" cy="146.1" r="0.96" fill="#eaf3ff" opacity="0.73"/><circle cx="290.8" cy="420.1" r="0.95" fill="#eaf3ff" opacity="0.27"/><circle cx="1364.1" cy="40.1" r="0.74" fill="#eaf3ff" opacity="0.23"/><circle cx="93.7" cy="174.0" r="0.85" fill="#eaf3ff" opacity="0.25"/><circle cx="21.9" cy="314.2" r="0.66" fill="#eaf3ff" opacity="0.29"/><circle cx="791.6" cy="397.6" r="1.39" fill="#eaf3ff" opacity="0.58"/><circle cx="980.8" cy="358.7" r="1.62" fill="#eaf3ff" opacity="0.24"/><circle cx="75.6" cy="279.4" r="1.22" fill="#eaf3ff" opacity="0.46"/><circle cx="1094.6" cy="78.4" r="1.45" fill="#eaf3ff" opacity="0.41"/><circle cx="590.3" cy="110.1" r="0.94" fill="#eaf3ff" opacity="0.50"/><circle cx="775.6" cy="408.0" r="0.94" fill="#eaf3ff" opacity="0.58"/><circle cx="135.8" cy="293.4" r="0.79" fill="#eaf3ff" opacity="0.66"/><circle cx="1351.3" cy="114.5" r="1.57" fill="#eaf3ff" opacity="0.28"/><circle cx="427.6" cy="46.4" r="1.13" fill="#eaf3ff" opacity="0.21"/><circle cx="986.1" cy="259.0" r="1.10" fill="#eaf3ff" opacity="0.58"/><circle cx="326.7" cy="149.3" r="1.04" fill="#eaf3ff" opacity="0.15"/><circle cx="1241.6" cy="39.7" r="0.72" fill="#eaf3ff" opacity="0.63"/><circle cx="1145.8" cy="201.4" r="1.11" fill="#eaf3ff" opacity="0.23"/><circle cx="1.7" cy="234.2" r="0.89" fill="#eaf3ff" opacity="0.24"/><circle cx="1267.9" cy="8.7" r="1.03" fill="#eaf3ff" opacity="0.60"/><circle cx="1045.4" cy="48.1" r="1.49" fill="#eaf3ff" opacity="0.49"/><circle cx="881.9" cy="424.5" r="1.56" fill="#eaf3ff" opacity="0.51"/><circle cx="1077.8" cy="221.3" r="1.26" fill="#eaf3ff" opacity="0.64"/><circle cx="867.2" cy="169.4" r="0.62" fill="#eaf3ff" opacity="0.62"/><circle cx="476.3" cy="193.1" r="0.95" fill="#eaf3ff" opacity="0.48"/><circle cx="561.3" cy="375.3" r="1.31" fill="#eaf3ff" opacity="0.49"/><circle cx="1096.2" cy="198.2" r="1.24" fill="#eaf3ff" opacity="0.60"/><circle cx="1011.5" cy="334.6" r="1.67" fill="#eaf3ff" opacity="0.48"/><circle cx="777.2" cy="84.8" r="0.89" fill="#eaf3ff" opacity="0.41"/><circle cx="698.3" cy="404.7" r="0.65" fill="#eaf3ff" opacity="0.36"/><circle cx="420" cy="198" r="495" fill="url(#rd_glowT)" opacity="0.5"/><path d="M 0.0 480.0 L 200.0 440.0 L 420.0 480.0 L 620.0 420.0 L 820.0 470.0 L 1050.0 425.0 L 1250.0 470.0 L 1400.0 440.0 L 1400 900 L 0 900 Z" fill="#0b1725" opacity="1"/><path d="M 0.0 480.0 L 200.0 440.0 L 420.0 480.0 L 620.0 420.0 L 820.0 470.0 L 1050.0 425.0 L 1250.0 470.0 L 1400.0 440.0" fill="none" stroke="#3ef0cf" stroke-width="5.4" opacity="0.10" filter="url(#rd_soft)" stroke-linejoin="round"/><path d="M 0.0 480.0 L 200.0 440.0 L 420.0 480.0 L 620.0 420.0 L 820.0 470.0 L 1050.0 425.0 L 1250.0 470.0 L 1400.0 440.0" fill="none" stroke="#3ef0cf" stroke-width="1.8" opacity="0.3" stroke-linejoin="round" stroke-linecap="round"/><path d="M 0.0 600.0 L 200.0 580.0 L 380.0 560.0 L 620.0 430.0 L 760.0 330.0 L 880.0 250.0 L 1010.0 350.0 L 1160.0 470.0 L 1400.0 545.0 L 1400 900 L 0 900 Z" fill="#091320" opacity="1"/><path d="M 0.0 600.0 L 200.0 580.0 L 380.0 560.0 L 620.0 430.0 L 760.0 330.0 L 880.0 250.0 L 1010.0 350.0 L 1160.0 470.0 L 1400.0 545.0" fill="none" stroke="#dbff3e" stroke-width="7.8" opacity="0.19" filter="url(#rd_soft)" stroke-linejoin="round"/><path d="M 0.0 600.0 L 200.0 580.0 L 380.0 560.0 L 620.0 430.0 L 760.0 330.0 L 880.0 250.0 L 1010.0 350.0 L 1160.0 470.0 L 1400.0 545.0" fill="none" stroke="#dbff3e" stroke-width="2.6" opacity="0.55" stroke-linejoin="round" stroke-linecap="round"/><g fill="#091320" stroke="#dbff3e" stroke-width="2.2" stroke-opacity="0.8"><path d="M840 254 L840 180 L852 180 L852 166 L864 166 L864 180 L876 180 L876 196 L906 196 L906 176 L918 176 L918 162 L930 162 L930 176 L942 176 L942 254 Z"/><rect x="866" y="212" width="10" height="18" fill="#dbff3e" opacity="0.55"/><rect x="900" y="214" width="10" height="18" fill="#dbff3e" opacity="0.35"/></g><circle cx="890" cy="200" r="130" fill="url(#rd_glow)" opacity="0.55"/><path d="M 260 600 Q 700 574 1180 600" fill="none" stroke="#dbff3e" stroke-width="1.4" opacity="0.22"/><path d="M 290 622 Q 700 596 1160 622" fill="none" stroke="#dbff3e" stroke-width="1.4" opacity="0.20"/><path d="M 320 644 Q 700 618 1140 644" fill="none" stroke="#dbff3e" stroke-width="1.4" opacity="0.17"/><path d="M 350 666 Q 700 640 1120 666" fill="none" stroke="#dbff3e" stroke-width="1.4" opacity="0.14"/><path d="M 380 688 Q 700 662 1100 688" fill="none" stroke="#dbff3e" stroke-width="1.4" opacity="0.12"/><path d="M 410 710 Q 700 684 1080 710" fill="none" stroke="#dbff3e" stroke-width="1.4" opacity="0.10"/><path d="M0 730 L1400 714 L1400 900 L0 900 Z" fill="#07121e"/><path d="M0 730 L1400 714" stroke="#3ef0cf" stroke-width="7" opacity="0.16" filter="url(#rd_soft)"/><path d="M0 730 L1400 714" stroke="#3ef0cf" stroke-width="1.8" opacity="0.5"/><path d="M 64 742 h 228" stroke="#3ef0cf" stroke-width="1.3" opacity="0.09" stroke-linecap="round"/><path d="M 401 749 h 167" stroke="#3ef0cf" stroke-width="1.3" opacity="0.20" stroke-linecap="round"/><path d="M 504 756 h 333" stroke="#3ef0cf" stroke-width="1.3" opacity="0.21" stroke-linecap="round"/><path d="M 445 763 h 239" stroke="#3ef0cf" stroke-width="1.3" opacity="0.07" stroke-linecap="round"/><path d="M 706 770 h 104" stroke="#3ef0cf" stroke-width="1.3" opacity="0.11" stroke-linecap="round"/><path d="M 151 777 h 328" stroke="#3ef0cf" stroke-width="1.3" opacity="0.13" stroke-linecap="round"/><path d="M 454 784 h 260" stroke="#3ef0cf" stroke-width="1.3" opacity="0.19" stroke-linecap="round"/><path d="M 882 791 h 206" stroke="#3ef0cf" stroke-width="1.3" opacity="0.20" stroke-linecap="round"/><path d="M 639 798 h 317" stroke="#3ef0cf" stroke-width="1.3" opacity="0.22" stroke-linecap="round"/><path d="M 185 805 h 188" stroke="#3ef0cf" stroke-width="1.3" opacity="0.13" stroke-linecap="round"/><path d="M 276 812 h 179" stroke="#3ef0cf" stroke-width="1.3" opacity="0.08" stroke-linecap="round"/><path d="M 829 819 h 410" stroke="#3ef0cf" stroke-width="1.3" opacity="0.20" stroke-linecap="round"/><path d="M 714 826 h 218" stroke="#3ef0cf" stroke-width="1.3" opacity="0.10" stroke-linecap="round"/><path d="M 363 833 h 86" stroke="#3ef0cf" stroke-width="1.3" opacity="0.07" stroke-linecap="round"/><path d="M 426 840 h 221" stroke="#3ef0cf" stroke-width="1.3" opacity="0.16" stroke-linecap="round"/><path d="M 505 847 h 114" stroke="#3ef0cf" stroke-width="1.3" opacity="0.19" stroke-linecap="round"/><path d="M 383 854 h 243" stroke="#3ef0cf" stroke-width="1.3" opacity="0.11" stroke-linecap="round"/><path d="M 330 861 h 393" stroke="#3ef0cf" stroke-width="1.3" opacity="0.21" stroke-linecap="round"/><path d="M 166 868 h 392" stroke="#3ef0cf" stroke-width="1.3" opacity="0.19" stroke-linecap="round"/><path d="M 741 875 h 176" stroke="#3ef0cf" stroke-width="1.3" opacity="0.20" stroke-linecap="round"/><path d="M 524 882 h 236" stroke="#3ef0cf" stroke-width="1.3" opacity="0.06" stroke-linecap="round"/><path d="M 465 889 h 139" stroke="#3ef0cf" stroke-width="1.3" opacity="0.10" stroke-linecap="round"/><path d="M878 730 l 0 60 M902 730 l 0 48" stroke="#dbff3e" stroke-width="3" opacity="0.18"/><g fill="#040a10" stroke="#dbff3e" stroke-opacity="0.5" stroke-width="1.4"><path d="M980 772 l 130 0 l -12 20 l -106 0 z"/><rect x="1030" y="752" width="30" height="20"/></g></svg>