<svg xmlns="http://www.w3.org/2000/svg" viewBox="0 0 64 64">
  <!-- Favicon-Platzhalter: Sonnen-Mark aus dem Club-Ludwig-Logo -->
  <rect width="64" height="64" rx="12" fill="#0A141F"/>
  <g fill="#DBFF3E" transform="translate(32 32)">
    <circle r="9"/>
    <g>
      <path d="M-1.6 -12 L1.6 -12 L0 -26 Z"/>
      <path d="M-1.6 -12 L1.6 -12 L0 -26 Z" transform="rotate(30)"/>
      <path d="M-1.6 -12 L1.6 -12 L0 -26 Z" transform="rotate(60)"/>
      <path d="M-1.6 -12 L1.6 -12 L0 -26 Z" transform="rotate(90)"/>
      <path d="M-1.6 -12 L1.6 -12 L0 -26 Z" transform="rotate(120)"/>
      <path d="M-1.6 -12 L1.6 -12 L0 -26 Z" transform="rotate(150)"/>
      <path d="M-1.6 -12 L1.6 -12 L0 -26 Z" transform="rotate(180)"/>
      <path d="M-1.6 -12 L1.6 -12 L0 -26 Z" transform="rotate(210)"/>
      <path d="M-1.6 -12 L1.6 -12 L0 -26 Z" transform="rotate(240)"/>
      <path d="M-1.6 -12 L1.6 -12 L0 -26 Z" transform="rotate(270)"/>
      <path d="M-1.6 -12 L1.6 -12 L0 -26 Z" transform="rotate(300)"/>
      <path d="M-1.6 -12 L1.6 -12 L0 -26 Z" transform="rotate(330)"/>
    </g>
  </g>
</svg>
